<svg height="200px" width="200px" version="1.1" id="Layer_1" xmlns="http://www.w3.org/2000/svg" xmlns:xlink="http://www.w3.org/1999/xlink" viewBox="0 0 392.55 392.55" xml:space="preserve" fill="#000000"><g id="SVGRepo_bgCarrier" stroke-width="0"></g><g id="SVGRepo_tracerCarrier" stroke-linecap="round" stroke-linejoin="round"></g><g id="SVGRepo_iconCarrier"> <path style="fill:#FFFFFF;" d="M194.004,322.012l-5.172-49.972c-0.323-2.844,0.517-5.818,2.392-8.016l63.677-78.222V31.62 c0-5.301-4.331-9.632-9.632-9.632H31.547c-5.301,0-9.632,4.331-9.632,9.632v284.703h43.636c6.012,0,10.925,4.848,10.925,10.925 v43.636h168.857c5.301,0,9.632-4.331,9.632-9.632v-34.457l-48.937,5.107C200.081,332.291,194.65,327.96,194.004,322.012z"></path> <path style="fill:#56ACE0;" d="M191.16,263.96c-1.875,2.263-2.715,5.107-2.392,8.016l5.172,49.972 c0.646,6.012,5.947,10.343,11.96,9.762l27.216-2.844v9.244c0,6.012-4.848,10.861-10.925,10.861H76.412v-21.915 c0-6.012-4.848-10.925-10.925-10.925H43.572V151.281h6.4c6.012,0,10.925-4.848,10.925-10.861s-4.848-10.925-10.925-10.925h-6.4 v-19.394h29.026c6.012,0,10.861-4.848,10.861-10.861S78.61,88.315,72.598,88.315H43.636V54.57c0-6.012,4.848-10.925,10.925-10.925 h167.693c6.012,0,10.925,4.848,10.925,10.925v157.802L191.16,263.96z"></path> <path style="fill:#FFFFFF;" d="M138.408,111.523c10.343,0,18.747-8.404,18.747-18.747s-8.404-18.747-18.747-18.747 s-18.747,8.404-18.747,18.747S128.065,111.523,138.408,111.523z"></path> <path style="fill:#194F82;" d="M138.408,133.374c22.432,0,40.598-18.23,40.598-40.598s-18.295-40.598-40.598-40.598 S97.81,70.408,97.81,92.776S115.976,133.374,138.408,133.374z M138.408,73.964c10.343,0,18.747,8.404,18.747,18.747 s-8.404,18.747-18.747,18.747s-18.747-8.404-18.747-18.747S128.065,73.964,138.408,73.964z"></path> <path style="fill:#FFC10D;" d="M138.408,163.047c-24.824,0-45.576,17.519-50.618,40.857h101.236 C183.984,180.566,163.168,163.047,138.408,163.047z"></path> <g> <path style="fill:#194F82;" d="M211.976,213.083c-0.905-39.822-33.552-71.887-73.568-71.887c-40.598,0-73.568,32.97-73.568,73.568 c0,6.012,4.848,10.925,10.925,10.925h125.349h0.065c6.012,0,10.925-4.848,10.925-10.925 C212.04,214.182,212.04,213.665,211.976,213.083z M87.79,203.903c5.042-23.337,25.794-40.857,50.618-40.857 s45.576,17.519,50.618,40.857H87.79z"></path> <path style="fill:#194F82;" d="M154.764,281.802H67.62c-6.012,0-10.925-4.849-10.925-10.925c0-6.012,4.848-10.925,10.925-10.925 h87.143c6.012,0,10.925,4.849,10.925,10.925S160.776,281.802,154.764,281.802z"></path> <path style="fill:#194F82;" d="M154.764,333.778h-48.032c-6.012,0-10.925-4.848-10.925-10.925c0-6.012,4.848-10.925,10.925-10.925 h48.032c6.012,0,10.925,4.848,10.925,10.925S160.776,333.778,154.764,333.778z"></path> </g> <polygon style="fill:#FFFFFF;" points="54.562,355.37 54.562,338.045 37.236,338.045 "></polygon> <g> <path style="fill:#FFC10D;" d="M361.632,128.202c-10.214-8.275-24.954-7.046-33.681,2.651l38.012,30.901 C373.592,151.216,371.846,136.477,361.632,128.202z"></path> <polygon style="fill:#FFC10D;" points="218.828,264.542 257.099,295.701 352.259,178.691 314.053,147.661 "></polygon> <polygon style="fill:#FFC10D;" points="214.562,308.824 235.96,306.691 212.428,287.426 "></polygon> </g> <path style="fill:#194F82;" d="M375.402,111.265c-19.911-16.162-49.131-13.123-65.358,6.723l-33.293,40.986V31.62 c0-17.39-14.158-31.547-31.547-31.547H31.547C14.158,0.073,0,14.23,0,31.62v286.966c0,8.404,3.232,16.291,9.18,22.238l42.473,42.473 c5.947,5.947,13.834,9.18,22.238,9.18h171.249c17.39,0,31.547-14.158,31.547-31.547v-54.95l105.374-129.487 C398.352,156.711,395.313,127.426,375.402,111.265z M254.901,361.059c0,5.301-4.331,9.632-9.632,9.632H76.412v-43.636 c0-6.012-4.848-10.925-10.925-10.925H21.786V31.62c0-5.301,4.331-9.632,9.632-9.632h213.721c5.301,0,9.632,4.331,9.632,9.632 v154.182l-63.677,78.222c-1.875,2.263-2.715,5.107-2.392,8.016l5.172,49.972c0.646,6.012,5.947,10.343,11.96,9.762l48.937-5.107 v34.457h0.129V361.059z M54.562,355.37l-17.39-17.39h17.39V355.37z M361.632,128.202c10.214,8.275,11.96,23.014,4.331,33.552 l-38.012-30.901C336.679,121.156,351.418,119.863,361.632,128.202z M352.259,178.691l-95.224,117.01l-38.271-31.095l95.224-117.01 L352.259,178.691z M214.562,308.824l-2.263-21.398l23.596,19.135L214.562,308.824z"></path> </g></svg>